<svg xmlns="http://www.w3.org/2000/svg" viewBox="0 0 100 21.9">
  <path d="M0 19V0h5v7.7h6.3V0h5v19h-5v-7.3H5V19H0zm27.4.3c-4.7 0-7.9-3.4-7.9-7.7s3.2-6.1 7-6.1 7.9 3.4 7.9 7.7-3.2 6.1-7 6.1zm-.7-4.3c1.4 0 2.2-.4 2.2-2s-1.1-3.1-2.7-3.1-2.2.4-2.2 2 1.1 3.1 2.7 3.1zm18.5 4h-4.9l-2.9-6.1V19h-5V0h5v6.9L40.3 0h4.9l-4.9 8.1L45.2 19zm10.6.3c-2.8 0-4.9-1-4.9-3.3 0-.3.1-.7.1-1l1.1-4.9h-2.2l1-4.2h2.2l.8-3.6L58.4 0l-.6 2.3-.8 3.6h2.7l-1 4.2h-2.7l-.7 3.2v.6c0 .6.4 1.1 1.2 1.1.1 0 .4 0 .7-.1v3.9c-.5.4-1.4.5-2.3.5zm14.4 0c-4.7 0-7.9-3.4-7.9-7.7s3.2-6.1 7-6.1 7.9 3.4 7.9 7.7-3.2 6.1-7 6.1zm-.7-4.3c1.4 0 2.2-.4 2.2-2s-1.1-3.1-2.7-3.1-2.2.4-2.2 2 1.1 3.1 2.7 3.1zm18.7 4h-5l-4.1-7.2V19h-5V0h5v6.9L85.1 0h5l-4.9 8.1L90 19z"/>
</svg>
