<svg xmlns="http://www.w3.org/2000/svg" viewBox="0 0 120 21.9">
  <path d="M8.6 19.3h-4.9l.6-2.9c-.8 1.2-2.3 1.7-3.8 1.7C-3.2 18.1-5 13.8-5 10.2s1.9-5.5 4.9-5.5c1.4 0 2.5.5 3.6 1.7L2.1.8H7L3 19zm-5.1-7.3c0-.9 1-2.2 2.2-2.2.8 0 1.4.3 2 .9l.8 3.3c-.5.6-.8.9-2.2.9s-2.8-1.3-2.8-3z"/>
  <path d="M19.5 19.3c-4.7 0-7-2.7-7-6.1s3.2-7.7 7.9-7.7 7 2.7 7 6.1-3.2 7.7-7.9 7.7zm.2-4.3c1.6 0 2.7-1.5 2.7-3.1s-.8-2-2.2-2-2.7 1.5-2.7 3.1.8 2 2.2 2z"/>
  <path d="M32.5 19.3c-4.7 0-7-2.7-7-6.1s3.2-7.7 7.9-7.7 7 2.7 7 6.1-3.2 7.7-7.9 7.7zm.2-4.3c1.6 0 2.7-1.5 2.7-3.1s-.8-2-2.2-2-2.7 1.5-2.7 3.1.8 2 2.2 2z"/>
  <path d="M45.5 19.3c-2.8 0-4.9-1-4.9-3.3 0-.3 0-.7.1-1l1.1-4.9h-2.2l1-4.2h2.2l.8-3.6L49.1 0l-.6 2.3-.8 3.6h2.7l-1 4.2h-2.7l-.7 3.2v.6c0 .6.4 1.1 1.2 1.1.3 0 .5 0 .7-.1v3.9c-.5.4-1.4.5-2.3.5z"/>
  <path d="M58.5 19.3c-4.7 0-7-2.7-7-6.1s3.2-7.7 7.9-7.7 7 2.7 7 6.1-3.2 7.7-7.9 7.7zm.2-4.3c1.6 0 2.7-1.5 2.7-3.1s-.8-2-2.2-2-2.7 1.5-2.7 3.1.8 2 2.2 2z"/>
  <path d="M71.5 19.3c-2.8 0-4.9-1-4.9-3.3 0-.3 0-.7.1-1l1.1-4.9h-2.2l1-4.2h2.2l.8-3.6L75.1 0l-.6 2.3-.8 3.6h2.7l-1 4.2h-2.7l-.7 3.2v.6c0 .6.4 1.1 1.2 1.1.3 0 .5 0 .7-.1v3.9c-.5.4-1.4.5-2.3.5z"/>
  <path d="M84.5 19.3c-4.7 0-7-2.7-7-6.1s3.2-7.7 7.9-7.7 7 2.7 7 6.1-3.2 7.7-7.9 7.7zm.2-4.3c1.6 0 2.7-1.5 2.7-3.1s-.8-2-2.2-2-2.7 1.5-2.7 3.1.8 2 2.2 2z"/>
  <path d="M97.5 19.3c-2.8 0-4.9-1-4.9-3.3 0-.3 0-.7.1-1l1.1-4.9h-2.2l1-4.2h2.2l.8-3.6L101.1 0l-.6 2.3-.8 3.6h2.7l-1 4.2h-2.7l-.7 3.2v.6c0 .6.4 1.1 1.2 1.1.3 0 .5 0 .7-.1v3.9c-.5.4-1.4.5-2.3.5z"/>
  <path d="M110.5 19.3c-2.8 0-4.9-1-4.9-3.3 0-.3 0-.7.1-1l1.1-4.9h-2.2l1-4.2h2.2l.8-3.6L114.1 0l-.6 2.3-.8 3.6h2.7l-1 4.2h-2.7l-.7 3.2v.6c0 .6.4 1.1 1.2 1.1.3 0 .5 0 .7-.1v3.9c-.5.4-1.4.5-2.3.5z"/>
</svg>
