<?xml version="1.0" encoding="UTF-8"?>
<svg width="32" height="32" viewBox="0 0 32 32" fill="none" xmlns="http://www.w3.org/2000/svg">
  <path d="M16 2C8.268 2 2 8.268 2 16s6.268 14 14 14 14-6.268 14-14S23.732 2 16 2zm0 25.2c-6.188 0-11.2-5.012-11.2-11.2S9.812 4.8 16 4.8 27.2 9.812 27.2 16 22.188 27.2 16 27.2z" fill="currentColor"/>
  <path d="M20.5 10h-9a1.5 1.5 0 00-1.5 1.5v3c0 .827.673 1.5 1.5 1.5h9a1.5 1.5 0 001.5-1.5v-3a1.5 1.5 0 00-1.5-1.5zm-4.5 9h-4.5a1.5 1.5 0 00-1.5 1.5v1a1.5 1.5 0 001.5 1.5h4.5a1.5 1.5 0 001.5-1.5v-1a1.5 1.5 0 00-1.5-1.5z" fill="currentColor"/>
</svg>
